<svg xmlns="http://www.w3.org/2000/svg" viewBox="0 0 24 24">
  <path fill="#0a66c2" d="M22.23,0H1.77C0.8,0,0,0.77,0,1.72v20.56C0,23.23,0.8,24,1.77,24h20.46c0.98,0,1.77-0.77,1.77-1.72V1.72C24,0.77,23.2,0,22.23,0z"/>
  <path fill="#ffffff" d="M7.12,20.45H3.56V9h3.56V20.45z M5.34,7.43C4.19,7.43,3.27,6.51,3.27,5.37C3.27,4.22,4.19,3.3,5.34,3.3c1.14,0,2.06,0.92,2.06,2.07C7.41,6.51,6.49,7.43,5.34,7.43z M20.45,20.45h-3.56v-5.57c0-1.33-0.03-3.04-1.85-3.04c-1.85,0-2.14,1.45-2.14,2.94v5.67H9.33V9h3.42v1.56h0.05c0.48-0.9,1.64-1.85,3.38-1.85c3.61,0,4.28,2.38,4.28,5.47V20.45z"/>
</svg>
