<svg viewBox="0 0 100 100" xmlns="http://www.w3.org/2000/svg">
  <!-- Calendar Board -->
  <rect x="15" y="20" width="70" height="64" rx="8" fill="#1a5653" />
  <!-- Calendar Header (darker) -->
  <path d="M 15 28 h 70 v -8 a 8 8 0 0 0 -8 -8 h -54 a 8 8 0 0 0 -8 8 z" fill="#103c3a" />
  <!-- Binder Loops -->
  <rect x="28" y="10" width="8" height="16" rx="4" fill="#5e9d9b" />
  <rect x="64" y="10" width="8" height="16" rx="4" fill="#5e9d9b" />
  
  <!-- Calendar Days (grid) -->
  <!-- Row 1 -->
  <rect x="23" y="38" width="11" height="8" rx="2" fill="#5e9d9b" />
  <rect x="38" y="38" width="11" height="8" rx="2" fill="#84b8b2" />
  <rect x="53" y="38" width="11" height="8" rx="2" fill="#e3ebe9" />
  
  <!-- Row 2 -->
  <rect x="23" y="50" width="11" height="8" rx="2" fill="#e3ebe9" />
  <rect x="38" y="50" width="11" height="8" rx="2" fill="#5e9d9b" />
  <rect x="53" y="50" width="11" height="8" rx="2" fill="#84b8b2" />
  
  <!-- Row 3 -->
  <rect x="23" y="62" width="11" height="8" rx="2" fill="#84b8b2" />
  <rect x="38" y="62" width="11" height="8" rx="2" fill="#e3ebe9" />

  <!-- Orange Circle with User -->
  <circle cx="75" cy="74" r="16" fill="#e99f38" />
  <circle cx="75" cy="68" r="5" fill="#603b0d" />
  <path d="M 66 82 a 9 9 0 0 1 18 0 z" fill="#603b0d" />
</svg>
